<svg xmlns="http://www.w3.org/2000/svg" version="1.1" xmlns:xlink="http://www.w3.org/1999/xlink" xmlns:svgjs="http://svgjs.dev/svgjs" width="1440" height="560" preserveAspectRatio="none" viewBox="0 0 1440 560"><g mask="url(&quot;#SvgjsMask1466&quot;)" fill="none"><rect width="1440" height="560" x="0" y="0" fill="url(&quot;#SvgjsLinearGradient1467&quot;)"></rect><path d="M1440 0L1430.58 0L1440 186.17z" fill="rgba(255, 255, 255, .1)"></path><path d="M1430.58 0L1440 186.17L1440 292.06L809.9699999999999 0z" fill="rgba(255, 255, 255, .075)"></path><path d="M809.97 0L1440 292.06L1440 326.8L660.37 0z" fill="rgba(255, 255, 255, .05)"></path><path d="M660.37 0L1440 326.8L1440 467.56L316.9 0z" fill="rgba(255, 255, 255, .025)"></path><path d="M0 560L60.57 560L0 545.4z" fill="rgba(0, 0, 0, .1)"></path><path d="M0 545.4L60.57 560L267.6 560L0 497.39z" fill="rgba(0, 0, 0, .075)"></path><path d="M0 497.39L267.6 560L791.25 560L0 349.80999999999995z" fill="rgba(0, 0, 0, .05)"></path><path d="M0 349.81L791.25 560L1168.9 560L0 152.23z" fill="rgba(0, 0, 0, .025)"></path></g><defs><mask id="SvgjsMask1466"><rect width="1440" height="560" fill="#ffffff"></rect></mask><linearGradient x1="100%" y1="50%" x2="0%" y2="50%" gradientUnits="userSpaceOnUse" id="SvgjsLinearGradient1467"><stop stop-color="rgba(14, 42, 71, 1)" offset="0"></stop><stop stop-color="rgba(255, 255, 255, 1)" offset="1"></stop></linearGradient></defs></svg>